<svg width="148" height="149" viewBox="0 0 148 149" fill="none" xmlns="http://www.w3.org/2000/svg">
    <ellipse cx="34.7859" cy="4.42729" rx="34.7859" ry="4.42729" transform="matrix(1 0 0 -1 78.4277 79.6953)" fill="#FBF840"/>
    <ellipse cx="34.7859" cy="4.42729" rx="34.7859" ry="4.42729" transform="matrix(1 0 0 -1 0 79.2773)" fill="#FBF840"/>
    <ellipse cx="34.7859" cy="4.42729" rx="34.7859" ry="4.42729" transform="matrix(0.707107 0.707107 0.707107 -0.707107 73.7891 81.9414)" fill="#4CCA72"/>
    <ellipse cx="34.7859" cy="4.42729" rx="34.7859" ry="4.42729" transform="matrix(0 1 1 0 69.5703 0)" fill="#5349C2"/>
    <ellipse cx="34.7859" cy="4.42729" rx="34.7859" ry="4.42729" transform="matrix(-0.707107 -0.707107 -0.707107 0.707107 73.5879 68.7969)" fill="#4CCA72"/>
    <ellipse cx="34.7859" cy="4.42729" rx="34.7859" ry="4.42729" transform="matrix(-0.707107 0.707107 0.707107 0.707107 122.98 19.6074)" fill="#FF2C2C"/>
    <ellipse cx="34.7859" cy="4.42729" rx="34.7859" ry="4.42729" transform="matrix(-0.707107 0.707107 0.707107 0.707107 67.3223 75.6758)" fill="#FF2C2C"/>
    <ellipse cx="34.7859" cy="4.42729" rx="34.7859" ry="4.42729" transform="matrix(0 1 1 0 69.5703 79.2773)" fill="#5349C2"/>
</svg>
